<mxfile host="app.diagrams.net" agent="Mozilla/5.0 (Windows NT 10.0; Win64; x64) AppleWebKit/537.36 (KHTML, like Gecko) Chrome/131.0.0.0 Safari/537.36" version="25.0.3">
  <diagram name="Pagină-1" id="sgfzJ31gN2lUz1fAnktD">
    <mxGraphModel grid="1" page="1" gridSize="10" guides="1" tooltips="1" connect="1" arrows="1" fold="1" pageScale="1" pageWidth="827" pageHeight="1169" math="0" shadow="0">
      <root>
        <mxCell id="0" />
        <mxCell id="1" parent="0" />
        <mxCell id="gs_JWUIZCzPqHRLdr9hx-1" value="USERS" style="swimlane;fontStyle=0;childLayout=stackLayout;horizontal=1;startSize=30;horizontalStack=0;resizeParent=1;resizeParentMax=0;resizeLast=0;collapsible=1;marginBottom=0;whiteSpace=wrap;html=1;" vertex="1" parent="1">
          <mxGeometry x="350" y="100" width="140" height="60" as="geometry" />
        </mxCell>
        <mxCell id="gs_JWUIZCzPqHRLdr9hx-2" value="user_id#" style="text;strokeColor=none;fillColor=none;align=left;verticalAlign=middle;spacingLeft=4;spacingRight=4;overflow=hidden;points=[[0,0.5],[1,0.5]];portConstraint=eastwest;rotatable=0;whiteSpace=wrap;html=1;" vertex="1" parent="gs_JWUIZCzPqHRLdr9hx-1">
          <mxGeometry y="30" width="140" height="30" as="geometry" />
        </mxCell>
        <mxCell id="gs_JWUIZCzPqHRLdr9hx-5" value="ROLES" style="swimlane;fontStyle=0;childLayout=stackLayout;horizontal=1;startSize=30;horizontalStack=0;resizeParent=1;resizeParentMax=0;resizeLast=0;collapsible=1;marginBottom=0;whiteSpace=wrap;html=1;" vertex="1" parent="1">
          <mxGeometry x="700" y="100" width="140" height="60" as="geometry" />
        </mxCell>
        <mxCell id="gs_JWUIZCzPqHRLdr9hx-6" value="role_id#" style="text;strokeColor=none;fillColor=none;align=left;verticalAlign=middle;spacingLeft=4;spacingRight=4;overflow=hidden;points=[[0,0.5],[1,0.5]];portConstraint=eastwest;rotatable=0;whiteSpace=wrap;html=1;" vertex="1" parent="gs_JWUIZCzPqHRLdr9hx-5">
          <mxGeometry y="30" width="140" height="30" as="geometry" />
        </mxCell>
        <mxCell id="gs_JWUIZCzPqHRLdr9hx-9" value="PRODUCTS" style="swimlane;fontStyle=0;childLayout=stackLayout;horizontal=1;startSize=30;horizontalStack=0;resizeParent=1;resizeParentMax=0;resizeLast=0;collapsible=1;marginBottom=0;whiteSpace=wrap;html=1;" vertex="1" parent="1">
          <mxGeometry x="350" y="290" width="140" height="60" as="geometry" />
        </mxCell>
        <mxCell id="gs_JWUIZCzPqHRLdr9hx-10" value="product_id#" style="text;strokeColor=none;fillColor=none;align=left;verticalAlign=middle;spacingLeft=4;spacingRight=4;overflow=hidden;points=[[0,0.5],[1,0.5]];portConstraint=eastwest;rotatable=0;whiteSpace=wrap;html=1;" vertex="1" parent="gs_JWUIZCzPqHRLdr9hx-9">
          <mxGeometry y="30" width="140" height="30" as="geometry" />
        </mxCell>
        <mxCell id="gs_JWUIZCzPqHRLdr9hx-13" value="REVIEWS" style="swimlane;fontStyle=0;childLayout=stackLayout;horizontal=1;startSize=30;horizontalStack=0;resizeParent=1;resizeParentMax=0;resizeLast=0;collapsible=1;marginBottom=0;whiteSpace=wrap;html=1;" vertex="1" parent="1">
          <mxGeometry x="700" y="290" width="140" height="60" as="geometry" />
        </mxCell>
        <mxCell id="gs_JWUIZCzPqHRLdr9hx-14" value="&amp;nbsp;review_id#" style="text;strokeColor=none;fillColor=none;align=left;verticalAlign=middle;spacingLeft=4;spacingRight=4;overflow=hidden;points=[[0,0.5],[1,0.5]];portConstraint=eastwest;rotatable=0;whiteSpace=wrap;html=1;" vertex="1" parent="gs_JWUIZCzPqHRLdr9hx-13">
          <mxGeometry y="30" width="140" height="30" as="geometry" />
        </mxCell>
        <mxCell id="gs_JWUIZCzPqHRLdr9hx-17" value="CATEGORIES" style="swimlane;fontStyle=0;childLayout=stackLayout;horizontal=1;startSize=30;horizontalStack=0;resizeParent=1;resizeParentMax=0;resizeLast=0;collapsible=1;marginBottom=0;whiteSpace=wrap;html=1;" vertex="1" parent="1">
          <mxGeometry x="350" y="440" width="140" height="60" as="geometry" />
        </mxCell>
        <mxCell id="gs_JWUIZCzPqHRLdr9hx-18" value="category_id#" style="text;strokeColor=none;fillColor=none;align=left;verticalAlign=middle;spacingLeft=4;spacingRight=4;overflow=hidden;points=[[0,0.5],[1,0.5]];portConstraint=eastwest;rotatable=0;whiteSpace=wrap;html=1;" vertex="1" parent="gs_JWUIZCzPqHRLdr9hx-17">
          <mxGeometry y="30" width="140" height="30" as="geometry" />
        </mxCell>
        <mxCell id="gs_JWUIZCzPqHRLdr9hx-21" value="" style="endArrow=none;html=1;rounded=0;" edge="1" parent="1">
          <mxGeometry width="50" height="50" relative="1" as="geometry">
            <mxPoint x="490" y="140" as="sourcePoint" />
            <mxPoint x="700" y="140" as="targetPoint" />
          </mxGeometry>
        </mxCell>
        <mxCell id="gs_JWUIZCzPqHRLdr9hx-22" value="deține" style="text;html=1;align=center;verticalAlign=middle;whiteSpace=wrap;rounded=0;" vertex="1" parent="1">
          <mxGeometry x="570" y="110" width="40" height="20" as="geometry" />
        </mxCell>
        <mxCell id="gs_JWUIZCzPqHRLdr9hx-23" value="M" style="text;html=1;align=center;verticalAlign=middle;whiteSpace=wrap;rounded=0;" vertex="1" parent="1">
          <mxGeometry x="500" y="110" width="20" height="20" as="geometry" />
        </mxCell>
        <mxCell id="gs_JWUIZCzPqHRLdr9hx-24" value="M" style="text;html=1;align=center;verticalAlign=middle;whiteSpace=wrap;rounded=0;" vertex="1" parent="1">
          <mxGeometry x="674" y="110" width="20" height="20" as="geometry" />
        </mxCell>
        <mxCell id="gs_JWUIZCzPqHRLdr9hx-25" value="" style="endArrow=none;html=1;rounded=0;" edge="1" parent="1">
          <mxGeometry width="50" height="50" relative="1" as="geometry">
            <mxPoint x="420" y="290" as="sourcePoint" />
            <mxPoint x="419.69" y="160" as="targetPoint" />
          </mxGeometry>
        </mxCell>
        <mxCell id="gs_JWUIZCzPqHRLdr9hx-26" value="1" style="text;html=1;align=center;verticalAlign=middle;whiteSpace=wrap;rounded=0;" vertex="1" parent="1">
          <mxGeometry x="430" y="170" width="10" height="20" as="geometry" />
        </mxCell>
        <mxCell id="gs_JWUIZCzPqHRLdr9hx-28" value="M" style="text;html=1;align=center;verticalAlign=middle;whiteSpace=wrap;rounded=0;" vertex="1" parent="1">
          <mxGeometry x="430" y="270" width="10" height="10" as="geometry" />
        </mxCell>
        <mxCell id="gs_JWUIZCzPqHRLdr9hx-29" value="CRUD" style="text;html=1;align=center;verticalAlign=middle;whiteSpace=wrap;rounded=0;" vertex="1" parent="1">
          <mxGeometry x="430" y="220" width="30" height="20" as="geometry" />
        </mxCell>
        <mxCell id="gs_JWUIZCzPqHRLdr9hx-30" value="" style="endArrow=none;html=1;rounded=0;entryX=0;entryY=0.25;entryDx=0;entryDy=0;" edge="1" parent="1" target="gs_JWUIZCzPqHRLdr9hx-13">
          <mxGeometry width="50" height="50" relative="1" as="geometry">
            <mxPoint x="480" y="160" as="sourcePoint" />
            <mxPoint x="570" y="230" as="targetPoint" />
          </mxGeometry>
        </mxCell>
        <mxCell id="gs_JWUIZCzPqHRLdr9hx-31" value="1" style="text;html=1;align=center;verticalAlign=middle;whiteSpace=wrap;rounded=0;" vertex="1" parent="1">
          <mxGeometry x="510" y="160" width="10" height="20" as="geometry" />
        </mxCell>
        <mxCell id="gs_JWUIZCzPqHRLdr9hx-32" value="M" style="text;html=1;align=center;verticalAlign=middle;whiteSpace=wrap;rounded=0;" vertex="1" parent="1">
          <mxGeometry x="674" y="260" width="20" height="20" as="geometry" />
        </mxCell>
        <mxCell id="gs_JWUIZCzPqHRLdr9hx-33" value="postează" style="text;html=1;align=center;verticalAlign=middle;whiteSpace=wrap;rounded=0;" vertex="1" parent="1">
          <mxGeometry x="590" y="200" width="50" height="20" as="geometry" />
        </mxCell>
        <mxCell id="gs_JWUIZCzPqHRLdr9hx-35" value="" style="endArrow=none;html=1;rounded=0;entryX=0;entryY=0.411;entryDx=0;entryDy=0;entryPerimeter=0;" edge="1" parent="1" target="gs_JWUIZCzPqHRLdr9hx-14">
          <mxGeometry width="50" height="50" relative="1" as="geometry">
            <mxPoint x="490" y="300" as="sourcePoint" />
            <mxPoint x="580" y="360" as="targetPoint" />
          </mxGeometry>
        </mxCell>
        <mxCell id="gs_JWUIZCzPqHRLdr9hx-36" value="are" style="text;html=1;align=center;verticalAlign=middle;whiteSpace=wrap;rounded=0;" vertex="1" parent="1">
          <mxGeometry x="580" y="290" width="40" height="20" as="geometry" />
        </mxCell>
        <mxCell id="gs_JWUIZCzPqHRLdr9hx-39" value="1" style="text;html=1;align=center;verticalAlign=middle;whiteSpace=wrap;rounded=0;" vertex="1" parent="1">
          <mxGeometry x="500" y="310" width="20" height="20" as="geometry" />
        </mxCell>
        <mxCell id="gs_JWUIZCzPqHRLdr9hx-40" value="M" style="text;html=1;align=center;verticalAlign=middle;whiteSpace=wrap;rounded=0;" vertex="1" parent="1">
          <mxGeometry x="674" y="330" width="20" height="30" as="geometry" />
        </mxCell>
        <mxCell id="gs_JWUIZCzPqHRLdr9hx-41" value="" style="endArrow=none;html=1;rounded=0;" edge="1" parent="1">
          <mxGeometry width="50" height="50" relative="1" as="geometry">
            <mxPoint x="420" y="440" as="sourcePoint" />
            <mxPoint x="420" y="350" as="targetPoint" />
          </mxGeometry>
        </mxCell>
        <mxCell id="gs_JWUIZCzPqHRLdr9hx-43" value="M" style="text;html=1;align=center;verticalAlign=middle;whiteSpace=wrap;rounded=0;" vertex="1" parent="1">
          <mxGeometry x="430" y="360" width="20" height="20" as="geometry" />
        </mxCell>
        <mxCell id="gs_JWUIZCzPqHRLdr9hx-44" value="1" style="text;html=1;align=center;verticalAlign=middle;whiteSpace=wrap;rounded=0;" vertex="1" parent="1">
          <mxGeometry x="435" y="420" width="10" height="20" as="geometry" />
        </mxCell>
        <mxCell id="gs_JWUIZCzPqHRLdr9hx-45" value="aparține" style="text;html=1;align=center;verticalAlign=middle;whiteSpace=wrap;rounded=0;" vertex="1" parent="1">
          <mxGeometry x="430" y="390" width="50" height="20" as="geometry" />
        </mxCell>
        <mxCell id="QeHKxddCIVgDBdDxqhQ_-1" value="ORDERS" style="swimlane;fontStyle=0;childLayout=stackLayout;horizontal=1;startSize=30;horizontalStack=0;resizeParent=1;resizeParentMax=0;resizeLast=0;collapsible=1;marginBottom=0;whiteSpace=wrap;html=1;" vertex="1" parent="1">
          <mxGeometry x="90" y="200" width="140" height="60" as="geometry" />
        </mxCell>
        <mxCell id="QeHKxddCIVgDBdDxqhQ_-2" value="order_id#" style="text;strokeColor=none;fillColor=none;align=left;verticalAlign=middle;spacingLeft=4;spacingRight=4;overflow=hidden;points=[[0,0.5],[1,0.5]];portConstraint=eastwest;rotatable=0;whiteSpace=wrap;html=1;" vertex="1" parent="QeHKxddCIVgDBdDxqhQ_-1">
          <mxGeometry y="30" width="140" height="30" as="geometry" />
        </mxCell>
        <mxCell id="QeHKxddCIVgDBdDxqhQ_-5" value="" style="endArrow=none;html=1;rounded=0;entryX=0;entryY=0.25;entryDx=0;entryDy=0;exitX=0.5;exitY=0;exitDx=0;exitDy=0;" edge="1" parent="1" source="QeHKxddCIVgDBdDxqhQ_-1" target="gs_JWUIZCzPqHRLdr9hx-1">
          <mxGeometry width="50" height="50" relative="1" as="geometry">
            <mxPoint x="170" y="190" as="sourcePoint" />
            <mxPoint x="230" y="145" as="targetPoint" />
          </mxGeometry>
        </mxCell>
        <mxCell id="QeHKxddCIVgDBdDxqhQ_-6" value="" style="endArrow=none;html=1;rounded=0;exitX=0.002;exitY=0.256;exitDx=0;exitDy=0;exitPerimeter=0;" edge="1" parent="1" source="gs_JWUIZCzPqHRLdr9hx-10">
          <mxGeometry width="50" height="50" relative="1" as="geometry">
            <mxPoint x="320" y="340" as="sourcePoint" />
            <mxPoint x="170" y="260" as="targetPoint" />
          </mxGeometry>
        </mxCell>
        <mxCell id="QeHKxddCIVgDBdDxqhQ_-7" value="1" style="text;html=1;align=center;verticalAlign=middle;whiteSpace=wrap;rounded=0;" vertex="1" parent="1">
          <mxGeometry x="320" y="100" width="20" height="20" as="geometry" />
        </mxCell>
        <mxCell id="QeHKxddCIVgDBdDxqhQ_-8" value="M" style="text;html=1;align=center;verticalAlign=middle;whiteSpace=wrap;rounded=0;" vertex="1" parent="1">
          <mxGeometry x="140" y="165" width="20" height="30" as="geometry" />
        </mxCell>
        <mxCell id="QeHKxddCIVgDBdDxqhQ_-9" value="M" style="text;html=1;align=center;verticalAlign=middle;whiteSpace=wrap;rounded=0;" vertex="1" parent="1">
          <mxGeometry x="150" y="265" width="20" height="20" as="geometry" />
        </mxCell>
        <mxCell id="QeHKxddCIVgDBdDxqhQ_-10" value="M" style="text;html=1;align=center;verticalAlign=middle;whiteSpace=wrap;rounded=0;" vertex="1" parent="1">
          <mxGeometry x="310" y="335" width="20" height="20" as="geometry" />
        </mxCell>
        <mxCell id="QeHKxddCIVgDBdDxqhQ_-11" value="conține" style="text;html=1;align=center;verticalAlign=middle;whiteSpace=wrap;rounded=0;" vertex="1" parent="1">
          <mxGeometry x="210" y="300" width="60" height="30" as="geometry" />
        </mxCell>
        <mxCell id="QeHKxddCIVgDBdDxqhQ_-12" value="plasează" style="text;html=1;align=center;verticalAlign=middle;whiteSpace=wrap;rounded=0;" vertex="1" parent="1">
          <mxGeometry x="210" y="110" width="60" height="30" as="geometry" />
        </mxCell>
      </root>
    </mxGraphModel>
  </diagram>
</mxfile>
